<svg id="Capa_1" enable-background="new 0 0 512 512" height="512" viewBox="0 0 512 512" width="512" xmlns="http://www.w3.org/2000/svg"><g><path d="m298.667 256c0-170.667-42.659-256-42.659-256-.003 0-.005 0-.008 0-68.38 0-132.667 26.629-181.019 74.98-48.353 48.353-74.981 112.64-74.981 181.02s26.628 132.667 74.98 181.02c48.353 48.351 112.64 74.98 181.02 74.98s42.667-85.333 42.667-256z" fill="#f7f0eb"/><g><path d="m437.019 74.98c-70.419-69.58-181.019-74.98-181.019-74.98l21.333 128-21.333 128-10.667 128 10.667 128c68.38 0 132.667-26.629 181.019-74.98 48.352-48.353 74.981-112.64 74.981-181.02s-26.629-132.667-74.981-181.02z" fill="#7974d5"/><path d="m128 384c0 70.69 57.303 127.996 127.992 128h.008v-256c-70.693 0-128 57.308-128 128z" fill="#9b80dc"/></g><path d="m256 0v256c70.693 0 128-57.308 128-128s-57.308-128-128-128z" fill="#efe2dd"/><g><path d="m313.831 135.5c0-31.888-25.943-57.831-57.831-57.831l-10.667 60.998 10.667 54.664c31.887 0 57.831-25.943 57.831-57.831z" fill="#7974d5"/><path d="m256 77.669c-31.888 0-57.831 25.943-57.831 57.831s25.943 57.831 57.831 57.831z" fill="#9b80dc"/></g><g><path d="m313.831 376.5c0 31.888-25.943 57.831-57.831 57.831l-10.667-60.998 10.667-54.664c31.887 0 57.831 25.943 57.831 57.831z" fill="#efe2dd"/><path d="m256 434.331c-31.888 0-57.831-25.943-57.831-57.831s25.943-57.831 57.831-57.831z" fill="#f7f0eb"/></g></g></svg>